<?xml version="1.0" encoding="UTF-8"?>
<svg overflow="hidden" viewBox="0 0 1480 1227" xml:space="preserve" xmlns="http://www.w3.org/2000/svg"><defs><clipPath id="a"><rect x="635" y="237" width="1480" height="1227"/></clipPath></defs><g transform="translate(-635 -237)" clip-path="url(#a)"><rect x="635" y="237" width="1480" height="1227" fill="#fff"/><rect x="793.5" y="494.5" width="1185" height="207" fill="none" stroke="#000" stroke-linejoin="round" stroke-miterlimit="10" stroke-width="4.5833"/><rect x="793.5" y="1076.5" width="1185" height="206" fill="none" stroke="#000" stroke-linejoin="round" stroke-miterlimit="10" stroke-width="4.5833"/><rect x="898.5" y="478.5" width="143" height="31" fill="#E59EDD" stroke="#78206E" stroke-miterlimit="8" stroke-width="6.875"/><rect x="1146.5" y="478.5" width="143" height="31" fill="#8ED973" stroke="#3B7D23" stroke-miterlimit="8" stroke-width="6.875"/><text transform="translate(1675.6 620)" font-size="83" font-weight="400">client</text><text transform="translate(1675.6 1203)" font-size="83" font-weight="400">server</text><rect x="1395.5" y="478.5" width="142" height="31" fill="#F2AA84" stroke="#C04F15" stroke-miterlimit="8" stroke-width="6.875"/><text transform="translate(915.11 430)" fill="#78206E" font-size="37" font-weight="400">30308</text><text transform="translate(903.95 458)" fill="#78206E" font-size="18" font-weight="400">HTTP/SOCKS5</text><text transform="translate(1156.1 434)" fill="#3B7D23" font-size="41" font-weight="400">30300</text><text transform="translate(1191.9 463)" fill="#3B7D23" font-size="18" font-weight="400">Direct</text><text transform="translate(1404.3 434)" fill="#C04F15" font-size="41" font-weight="400">30302</text><text transform="translate(1410.3 463)" fill="#C04F15" font-size="18" font-weight="400">Aimed Direct</text><rect x="897.5" y="685.5" width="641" height="31" fill="#4E95D9" stroke="#215F9A" stroke-miterlimit="8" stroke-width="6.875"/><rect x="897.5" y="1062.5" width="641" height="31" fill="#4E95D9" stroke="#215F9A" stroke-miterlimit="8" stroke-width="6.875"/><path d="m1218.5 716.5v345.47" fill="none" fill-rule="evenodd" stroke="#215F9A" stroke-miterlimit="8" stroke-width="6.875"/><rect x="1077.5" y="900.5" width="282" height="53" fill="#A6CAEC" stroke="#215F9A" stroke-miterlimit="8" stroke-width="4.5833"/><text transform="translate(1189.4 935)" fill="#215F9A" font-size="28" font-weight="400">UDP</text><rect x="1077.5" y="847.5" width="282" height="53" fill="#A6CAEC" stroke="#215F9A" stroke-miterlimit="8" stroke-width="4.5833"/><text transform="translate(1184.2 882)" fill="#215F9A" font-size="28" font-weight="400">QUIC</text><rect x="1077.5" y="793.5" width="282" height="54" fill="#A6CAEC" stroke="#215F9A" stroke-miterlimit="8" stroke-width="4.5833"/><text transform="translate(1132.6 829)" fill="#215F9A" font-size="28" font-weight="400">VMess</text><text transform="translate(1226.6 829)" fill="#215F9A" font-size="28" font-weight="400">+ TLS</text><path transform="matrix(-1 0 0 1 969.83 509.5)" d="m0 0 1.3313 172.73" fill="#E59EDD" fill-rule="evenodd" stroke="#78206E" stroke-miterlimit="8" stroke-width="6.875"/><path d="m1218.5 509.5v172.73" fill="#8ED973" fill-rule="evenodd" stroke="#3B7D23" stroke-miterlimit="8" stroke-width="6.875"/><rect x="898.5" y="1267.5" width="391" height="31" fill="#8ED973" stroke="#3B7D23" stroke-miterlimit="8" stroke-width="6.875"/><rect x="1395.5" y="1267.5" width="142" height="31" fill="#F2AA84" stroke="#C04F15" stroke-miterlimit="8" stroke-width="6.875"/><text transform="translate(1027.5 1340)" fill="#3B7D23" font-size="28" font-weight="400">Direct Out</text><rect x="1668.5" y="1238.5" width="257" height="60" fill="#fff" stroke="#000" stroke-miterlimit="8" stroke-width="4.5833"/><text transform="translate(1715 1276)" font-size="28" font-weight="400">listen</text><text transform="translate(1782.6 1276)" font-size="28" font-weight="400">-</text><text transform="translate(1799.2 1276)" font-size="28" font-weight="400">server</text><path transform="matrix(1.837e-16 1 1 -1.837e-16 1466.5 1298.5)" d="m0 0h82.5v330.49h-82.5" fill="none" fill-rule="evenodd" stroke="#C04F15" stroke-miterlimit="8" stroke-width="6.875"/><path transform="matrix(-1 0 0 1 968.83 1093.5)" d="m0 0 1.3313 172.73" fill="#E59EDD" fill-rule="evenodd" stroke="#78206E" stroke-miterlimit="8" stroke-width="6.875"/><path d="m1218.5 1095.5v172.73" fill="#8ED973" fill-rule="evenodd" stroke="#3B7D23" stroke-miterlimit="8" stroke-width="6.875"/><rect x="700.5" y="342.5" width="1363" height="416" fill="none" stroke="#000" stroke-dasharray="18.3333 13.75" stroke-miterlimit="8" stroke-width="4.5833"/><text transform="translate(1463.7 1016)" fill="#215F9A" font-size="41" font-weight="400">53</text><text transform="translate(1447 1045)" fill="#215F9A" font-size="18" font-weight="400">UDP DNS</text><text transform="translate(1946.8 316)" font-size="46" font-weight="400">LAN</text><text transform="translate(1644.3 398)" font-size="46" font-weight="400">no internet</text><text transform="translate(1890 398)" font-size="46" font-weight="400">access</text><text transform="translate(1020.6 1398)" fill="#215F9A" font-size="41" font-weight="400">Internet</text><path d="m1466.5 509.5v172.73" fill="#F2AA84" fill-rule="evenodd" stroke="#C04F15" stroke-miterlimit="8" stroke-width="6.875"/></g></svg>
